# xmcd CD database file
#
# Track frame offsets:
#	150
#	16638
#	33052
#	53600
#	78930
#	90857
#	109954
#	127207
#	157719
#	190763
#	208596
#	232937
#	258077
#	280148
#	301382
#	325403
#	345440
#
# Disc length: 4785 seconds
#
# Revision: 0
# Processed by: cddbd v1.4PL0 Copyright (c) Steve Scherf et al.
# Submitted via: CDex 1.50Beta5
#
DISCID=c912af11
DTITLE=Collection 2000 - Jazz
DYEAR=1900
DGENRE=Jazz
TTITLE0=L. Armstrong - Go Down Moses (Trad.)
TTITLE1=G. Miller - In The Mood (Garland)
TTITLE2=E. Fitzgerald - My Last Affair (Johnson)
TTITLE3=D. Ellington - Take The A Train (Strayhorn)
TTITLE4=N. "King" Cole - Nature Boy (Abhez)
TTITLE5=C. Basie - From Russia With Love (Basie-Bart)
TTITLE6=B. Holliday - You Don't Know What Love Is (G.de Paul)
TTITLE7=C. Hawkins - In Mellow Tone (D. Ellington)
TTITLE8=S. Grappelli - Smoke Gets In Your Eyes (J. Kern)
TTITLE9=O. Peterson, M. Jackson - Satisfaction (Jagger)
TTITLE10=J. Coltrane - Soul Eyes (M. Waldron)
TTITLE11=S. Vaughan - I've Got The World On A String (Arien)
TTITLE12=M. Davis - I Thought About You (Mercer)
TTITLE13=S. Getz - O Grande Amor (Barosso)
TTITLE14=Ch. Corea - Armando's Rhumba (Corea)
TTITLE15=D. Krall - Popcicle Toes (D.Krall)
TTITLE16=G. Kenny, L. Armstrong - What A Wonder (Welss)
EXTD=
EXTT0=
EXTT1=
EXTT2=
EXTT3=
EXTT4=
EXTT5=
EXTT6=
EXTT7=
EXTT8=
EXTT9=
EXTT10=
EXTT11=
EXTT12=
EXTT13=
EXTT14=
EXTT15=
EXTT16=
PLAYORDER=
